<svg xmlns="http://www.w3.org/2000/svg" width="20" height="20" viewBox="0 0 20 20" role="img" aria-label="Reels icon">
  <path
    d="M3.5 8H16.5V14C16.5 15.7 15.2 17 13.5 17H6.5C4.8 17 3.5 15.7 3.5 14V8Z"
    fill="#000000"
  />
  <path
    d="M3.5 7.2C3.5 5 5 3.5 7.2 3.5H7.6L9.5 7.2H3.5Z"
    fill="#000000"
  />
  <path
    d="M9.2 3.5H12.1L14 7.2H11.1L9.2 3.5Z"
    fill="#000000"
  />
  <path
    d="M13.8 3.6C15.1 3.9 16.1 5 16.4 6.4L16.5 7.2H15.7L13.8 3.6Z"
    fill="#000000"
  />
  <path
    d="M8.3 10.2V13.9L12 12.1L8.3 10.2Z"
    fill="#ffffff"
  />
</svg>
