<svg xmlns="http://www.w3.org/2000/svg" width="32" height="32" viewBox="0 0 32 32" role="img" aria-label="Infinity icon">
  <path
    d="M9.2 20.8C5.9 20.8 3.6 18.8 3.6 16C3.6 13.2 5.9 11.2 9.2 11.2C11.8 11.2 13.7 12.8 16 16C18.3 12.8 20.2 11.2 22.8 11.2C26.1 11.2 28.4 13.2 28.4 16C28.4 18.8 26.1 20.8 22.8 20.8C20.2 20.8 18.3 19.2 16 16C13.7 19.2 11.8 20.8 9.2 20.8ZM9.2 18.1C10.9 18.1 12.1 17.3 14 16C12.1 14.7 10.9 13.9 9.2 13.9C7.5 13.9 6.4 14.8 6.4 16C6.4 17.2 7.5 18.1 9.2 18.1ZM22.8 18.1C24.5 18.1 25.6 17.2 25.6 16C25.6 14.8 24.5 13.9 22.8 13.9C21.1 13.9 19.9 14.7 18 16C19.9 17.3 21.1 18.1 22.8 18.1Z"
    fill="#ffffff"
  />
</svg>
