<svg xmlns="http://www.w3.org/2000/svg" width="32" height="32" viewBox="0 0 32 32" role="img" aria-label="Text tool icon">
  <path
    d="M3.2 26.5L10.7 5.8H13.7L21.2 26.5H18.2L16.4 21.4H8L6.2 26.5H3.2ZM8.9 18.8H15.5L12.2 9.5L8.9 18.8Z"
    fill="#ffffff"
  />
  <path
    d="M24.2 26.8C21.5 26.8 19.8 25.4 19.8 23.2C19.8 20.8 21.7 19.6 25.1 19.6H27.3V18.8C27.3 17.4 26.4 16.7 24.8 16.7C23.5 16.7 22.6 17.3 22.2 18.3L20.1 17.5C20.8 15.8 22.5 14.6 24.9 14.6C27.8 14.6 29.8 16 29.8 18.8V26.5H27.5L27.3 25.2C26.7 26.1 25.6 26.8 24.2 26.8ZM24.8 24.8C26.3 24.8 27.3 23.9 27.3 22.7V21.4H25.2C23.3 21.4 22.3 22 22.3 23.1C22.3 24.1 23.2 24.8 24.8 24.8Z"
    fill="#ffffff"
  />
</svg>
