<svg xmlns="http://www.w3.org/2000/svg" width="320" height="320" viewBox="0 0 320 320" role="img" aria-label="Dog AR face mask">
  <defs>
    <radialGradient id="earOuter" cx="50%" cy="42%" r="58%">
      <stop offset="0" stop-color="#9b6938" />
      <stop offset="0.62" stop-color="#b78349" />
      <stop offset="1" stop-color="#6f4525" />
    </radialGradient>
    <radialGradient id="earInner" cx="50%" cy="50%" r="55%">
      <stop offset="0" stop-color="#f7b7bd" />
      <stop offset="1" stop-color="#b97678" />
    </radialGradient>
    <radialGradient id="nose" cx="48%" cy="40%" r="64%">
      <stop offset="0" stop-color="#6a4a3f" />
      <stop offset="0.42" stop-color="#211615" />
      <stop offset="1" stop-color="#0c0807" />
    </radialGradient>
    <filter id="softShadow" x="-30%" y="-30%" width="160%" height="160%">
      <feDropShadow dx="0" dy="5" stdDeviation="5" flood-color="#000000" flood-opacity="0.32" />
    </filter>
  </defs>
  <g filter="url(#softShadow)">
    <path d="M44 88C24 24 68 0 136 22C182 37 184 87 141 119C94 154 58 135 44 88Z" fill="url(#earOuter)" />
    <path d="M78 78C69 39 96 31 131 44C156 54 155 80 132 100C107 121 85 108 78 78Z" fill="url(#earInner)" opacity="0.82" />
    <path d="M276 88C296 24 252 0 184 22C138 37 136 87 179 119C226 154 262 135 276 88Z" fill="url(#earOuter)" />
    <path d="M242 78C251 39 224 31 189 44C164 54 165 80 188 100C213 121 235 108 242 78Z" fill="url(#earInner)" opacity="0.82" />
  </g>
  <g filter="url(#softShadow)">
    <ellipse cx="160" cy="225" rx="58" ry="42" fill="#8d6a51" opacity="0.94" />
    <ellipse cx="160" cy="204" rx="38" ry="28" fill="url(#nose)" />
    <ellipse cx="148" cy="197" rx="10" ry="7" fill="#ffffff" opacity="0.25" />
    <path d="M160 229C160 254 141 267 121 269" fill="none" stroke="#5d3828" stroke-width="8" stroke-linecap="round" opacity="0.7" />
    <path d="M160 229C160 254 179 267 199 269" fill="none" stroke="#5d3828" stroke-width="8" stroke-linecap="round" opacity="0.7" />
  </g>
</svg>
